<svg viewBox="0 0 200 200" xml:space="preserve" xmlns="http://www.w3.org/2000/svg"><g fill="#5c88db" class="fill-181617"><path d="M195.626 134.303c-.267-.037-.533-.073-.8-.108.146 2.545-.441 5.101.352 8.203.251-.905.433-1.257.435-1.608.03-2.164.013-4.327.013-6.487zM191.452 42.411c.391-1.236.285-2.495-.269-3.865-.244 1.217-.508 2.433-.713 3.657-.027.165.226.507.389.536.182.032.54-.16.593-.328zM5.024 59.124c-.614.2-.607.709-.638 1.189-.032.478-.008.961-.008 1.441.172.032.346.067.519.098.167-.445.353-.886.494-1.341.273-.887.092-1.538-.367-1.387zM8.254 78.159l.013-.025-.037.002.024.023zM35.685 17.75c.435 0 .468-.4.477-.741-.075-.382-.215-.727-.675-.516-.184.083-.374.35-.394.549-.037.379.211.707.592.708zM147.505 15.036c.474.201.978.232 1.428-.099.048-.035.021-.176.027-.272-.435-.364-.931-.325-1.418-.166-.375.124-.397.384-.037.537zM188.635 23.35c.05.199.245.361.374.538.108-.199.273-.387.317-.601.066-.339.053-.696.076-1.048.535-.918.894-1.889.892-2.968.226-.07.46-.126.681-.216.533-.217.701-.69.474-1.135-.11-.221-.603-.331-.927-.339-.526-.016-.855.341-1.039.824l-.064.058a2.447 2.447 0 0 0-.829.614c-1.26 1.477-1.26 1.477-.078 3.229.035.347.033.708.123 1.044zM194.197 158.961c-.021.087.046.228.117.299.036.034.174-.034.264-.058.021-.112.099-.26.053-.336-.17-.282-.347-.245-.434.095zM156.701 14.991c.085.022.2-.069.302-.108-.021-.09-.015-.222-.069-.26-.085-.058-.246-.102-.319-.058-.272.168-.24.344.086.426zM168.962 15.821c.204-.044.397-.151.595-.232l-.229-.251c-.219.091-.416.174-.611.258.082.079.182.239.245.225zM190.314 50.022c-.066.311.056.476.297.411.066-.018.09-.192.133-.294-.06-.094-.117-.188-.177-.285-.087.056-.236.099-.253.168z"></path><path d="m8.254 78.16-.024-.024-.048.053c.026-.009.047-.02.072-.029zM7.907 78.481c.093-.097.183-.195.275-.293-.076.021-.155.039-.214.084-.046.035-.042.137-.061.209z"></path><path d="M191.608 137.203c.313-1.8.354-3.595-.011-5.395.401-1.634.273-3.323-.139-4.863-.333-1.246-.365-2.474-.549-3.705l-.007-1.57c.032-.655.058-1.306-.761-1.54-1.338-1.314-.798-2.388.365-3.473.391-.365-.032-.94-.686-.901-.362.021-.715.202-1.075.313-.005.005-.009.01-.017.014a.044.044 0 0 0 .017-.016c.099-.642-.386-1.321.63-1.857 1.156-.604 1.262-1.7.275-2.163-1.124-.526-.929-.936-.314-1.535.73-.712.425-1.316-.044-1.958-.002 0-.002.002-.002.002.019-.556.034-1.11.053-1.666a619.374 619.374 0 0 1-.014-3.048c-.003.002-.003.005-.005.005.002 0 .002-.003.002-.005-.817-2.077-.8-2.077-.737-4.64.044-1.786.053-3.575.037-5.361-.01-.884.027-1.809-.745-2.477-.156-3.8-.846-7.566-.747-11.381.044-1.684-.236-3.3-.832-4.868.905-.907 1.402-1.909.735-3.18a.544.544 0 0 0 .097-.599c.689-1.117.768-2.207-.138-3.255l.733-3.203v-.001c-.014-1.557-.032-3.113-.046-4.669l-.003-.001.069-5.305c.25-1.191-.207-2.214-.761-3.212v-.001l-.019-3.122c.184-1.618.211-3.241-.294-4.801-.412-1.269-.159-2.449.221-3.645.206-1.506.039-3.048.763-4.508.379-.766.338-1.76-.016-2.623-.069-.174-.37-.345-.568-.35-.211-.004-.591.161-.616.301-.184 1.036-.299 2.083-.45 3.234-.779-.746-.287-1.924-1.243-2.386l.131-1.501a.767.767 0 0 1-.423.093c.002-.104.007-.208.012-.312.138.071.273.144.411.217.929-2.005.596-4.127.572-6.22 1.271-1.956.733-4.133.756-6.243-.26-1.341-1.896-.369-2.39-1.47-.623-1.392-1.86-1.24-2.947-.722-1.79.854-3.583 1.308-5.537.72v.001l-.002-.001c-.402-.58-.896-.944-1.618-.58-1.151.581-2.294 1.186-3.438 1.783-.805.42-1.487.232-2.097-.392h.003c.071-.372.202-.745.192-1.113-.009-.351-.064-.825-.289-1.001-.168-.132-.781.008-.952.219-.712.899-1.726.954-2.71 1.131a45.84 45.84 0 0 1-.717-.154c-.818-.9-1.91-.776-2.896-.604-3.174.551-6.38.518-9.577.666-2.793.01-5.551-.019-8.213-1.167-1-.429-2.241-.305-3.372-.43-.51-.778-1.328-.692-2.08-.697-3.854-.03-7.709-.025-11.563-.048-5.02-.028-10.04-.14-15.058-.064-1.547.022-2.999-.763-4.574-.292-1.914.574-3.806.245-5.657-.38l.001.001-.002-.001-1.329-.137a1.725 1.725 0 0 0-.315-.075c-2.888-.754-5.836-.424-8.762-.415-3.277.008-6.49.998-9.792.64-3.254-1.193-6.627-.826-9.951-.601-3.988.269-7.968.501-11.968.496-2.041-.003-4.136-.101-6.058.861-1.913-.045-3.799-.34-5.723.262-3.659 1.144-7.156 2.889-11.094 3.056-.617.025-1.217.4-1.825.615a1.21 1.21 0 0 0-.741-.119c-.898-.994-.358-2.506-1.197-3.52-1.974.669-1.991.663-3.15 1.984-.541.617-1.024.67-1.568.124-.913-.914-2.159-.646-3.242-.947-.52-.145-1.116.037-1.385.455-1.237 1.933-3.217 2.661-5.22 3.378l.001.001h-.001c-.58.101-1.149.224-1.485.787l.162.212h-.001l-.003.005-.158-.217c-1.707.409-2.813 1.399-3.076 3.195v.002c-1.424 1.002-2.72 2.102-3.004 3.967v.001c-.042.216-.041.432.005.648-.078 1.401-1.208 2.613-.818 4.071.326 1.222-.042 2.088-.739 3.12-.931 1.376-1.457 3.012-.029 4.525h.001c-.004.265-.008.53-.01.794v-.001l-.76.816h.001l-.001.001c-.216.962-.571 1.92-.599 2.889-.021.645.224 1.594 1.346.954.461-.228.922-.457 1.384-.684v-.001c.089 1.278.183 2.555.272 3.832l.004-.008-.003.009a.844.844 0 0 0-.1.732c-.04.772-.082 1.545-.121 2.318l.001.002-.001-.001c-.939.568-1.543 1.23-1.116 2.478.134.393-.204.947-.325 1.426h-.001c-.013.248-.022.498-.032.745a.008.008 0 0 0-.002.004c-.391.247-.617.59-.625 1.06v.001a.866.866 0 0 1-.117.524c-1.272 1.293-.961 2.889-.469 4.263.569 1.583.354 2.964-.213 4.406h-.002l.689 2.209c.26.523.52 1.043.778 1.564-.448.103-.669.392-.685.846-.214.56-.436 1.115-.637 1.679-.216.603-.23 1.173.353 1.605.34.19.732.236 1.083.396l.021.008h.001c.201.054.4.111.599.172l-.712 1.491c.999-.003 2.005-.759 2.997.031.137.254.108.489-.086.704-3.397.834-3.854 1.814-2.196 4.731.402 1.855.67 3.781.309 5.608-.503 2.538-.499 5.045-.326 7.583-.156.623-.436 1.241-.453 1.868-.217 7.876-.75 15.747-.479 23.635.334 9.695 1.147 19.344 2.593 28.938l.001.002-.002-.002c.16 4.697.678 9.354 1.527 13.977-.262 1.905.576 3.634.87 5.45-.315 1.611.847 2.994.702 4.58.09 1.611.779 2.929 2.008 3.954.17.143.508.239.689.165.169-.068.292-.384.333-.608.176-.934-.355-1.72-.562-2.577-.215-.887-.269-1.783.617-2.413.716.99.475 2.408 1.466 3.275-.009 2.121 1.446 3.429 2.697 4.845.283.317.655.389 1.015.17.638-.388 1.483-.491 1.816-1.305.787-.226 1.779.478 2.397-.524l.711-.292 1.529.058h.001c.607.45 1.263.844 1.802 1.363.389.374.746.749 1.269.462 1.729-.952 3.489.192 5.219-.136h.002c.345.156.683.42 1.039.45 4.866.391 9.734.786 14.607 1.099 2.046.129 4.105.049 6.158.085 3.973.066 7.945.163 11.905-.289v.002c2.584.016 5.205.311 7.742-.027 2.163-.285 4.319.133 6.479-.409 2.282-.57 4.624.239 6.939.294 6.471.156 12.949.301 19.419.182 3.078-.055 6.098-.262 9.205.094 5.88.669 11.838.48 17.725 1.271 1.661.223 3.357.145 4.872 1.066.458.278 1.002.037 1.467-.218 2.829.057 5.663-.224 8.488.284 1.149.207 2.28-.172 3.391-.569 1.07-.384 2.236-.927 3.291-.805.949.112 1.363-.158 1.929-.724.593-.596 1.732-.694 1.639-1.893.469-.537.938-1.073 1.409-1.608.574.14 1.145.299 1.724.418.99.209 1.041.147 1.289-1.395h-.002c.326-.504.581-1.083.997-1.497.927-.919 1.657-.864 3.085.076-.048.384-.147.771-.136 1.151.053 1.681.285 1.766 1.781 1.336 1.297-.37 1.536-1.205 1.446-2.34.915-2.092 2.454-3.744 3.866-5.489.751-.246.949-.791.822-1.508.331.191.72.319.979.579 3.107 3.107 3.68 2.487 6.293.224.188-.161.497-.193.667-.368.82-.844 1.632-1.768.954-3.018-.594-1.097.181-1.975.241-2.956.121-.212.179-.437.172-.681.956-2.039.869-2.225-1.556-3.296-.11-.977-.141-1.942.255-2.875.72.143 1.441.282 2.158.42.391-1.508-1.11-1.931-1.48-2.926-.45-1.211-.184-2.51-.131-3.774l.003-.002c.33-.646.985-.618 1.567-.8 1.427-.448 1.469-.604.698-2.321a.317.317 0 0 0 .027-.021v-.003c-.112-.915-.109-1.836.609-2.515 1.129-1.066.159-2.785 1.248-3.858.064-.063-.168-.426-.262-.648-.045-1.554-.095-3.109-.144-4.668zm-1.475 11.674-.027-.024c-.002 0-.002 0-.002-.003l.029.027z"></path></g><g fill="#FFFFFF" class="fill-ffffff"><path d="M121.153 71.572c0-4.522-3.625-8.18-8.095-8.18-4.469 0-8.101 3.658-8.101 8.18 0 4.509 3.632 8.18 8.101 8.18 4.47 0 8.095-3.671 8.095-8.18zM94.657 93.849H68.15c-.688 0-1.237.564-1.237 1.247v12.958c0 .683.548 1.238 1.237 1.238h10.343V125.4s-2.319.791-8.744.791c-7.584 0-18.161-2.773-18.161-26.027 0-23.279 11.032-26.342 21.366-26.342 8.955 0 12.81 1.583 15.27 2.334.768.235 1.474-.532 1.474-1.214l2.962-12.527c0-.314-.11-.706-.471-.972-.995-.706-7.083-4.105-22.44-4.105-17.707 0-35.853 7.529-35.853 43.718 0 36.198 20.787 41.605 38.298 41.605 14.51 0 23.301-6.207 23.301-6.207.36-.195.407-.704.407-.939v-40.42a1.252 1.252 0 0 0-1.245-1.246zM121.758 123.309V87.252c0-.689-.547-1.237-1.23-1.237H105.65c-.691 0-1.294.697-1.294 1.378v51.664c0 1.504.934 1.959 2.162 1.959h13.414c1.457 0 1.825-.72 1.825-1.99l.001-15.717zM164.663 86.007h-11.204l-.008-14.8c0-.558-.297-.847-.941-.847h-15.255c-.595 0-.923.267-.923.831v15.293s-7.641 1.85-8.156 1.999c-.51.148-.902.619-.902 1.191v9.605c0 .69.565 1.246 1.239 1.246h7.819v23.113c0 17.158 12.05 18.851 20.167 18.851 3.712 0 8.147-1.189 8.899-1.473.432-.156.697-.619.697-1.112l.008-10.569c0-.697-.578-1.246-1.235-1.246-.652 0-2.322.267-4.044.267-5.501 0-7.365-2.555-7.365-5.868v-21.962h11.204c.681 0 1.238-.556 1.238-1.246V87.244a1.23 1.23 0 0 0-1.238-1.237z"></path></g></svg>